<mxfile host="app.diagrams.net" modified="2023-04-13T03:05:46.274Z" agent="Mozilla/5.0 (Windows NT 10.0; Win64; x64; rv:102.0) Gecko/20100101 Firefox/102.0" version="21.1.7" etag="7D_twfe3Oz7EGOcp7veX" type="github">
  <diagram name="Page-1" id="OZ69xu-J_ihDzTUmK9bN">
    <mxGraphModel>
      <root>
        <mxCell id="0" />
        <mxCell id="1" parent="0" />
      </root>
    </mxGraphModel>
  </diagram>
</mxfile>
